<svg width="134" height="47" viewBox="0 0 134 47" fill="none" xmlns="http://www.w3.org/2000/svg">
<g clip-path="url(#clip0)">
<path d="M1.85477 42.4841C1.85477 42.7547 1.86618 42.9464 1.8833 43.0704C1.90043 43.1944 1.93467 43.2902 1.97462 43.3635C2.01457 43.4368 2.07734 43.4931 2.16295 43.5439C2.24855 43.5946 2.37981 43.6397 2.56814 43.6904V43.9835H0V43.6904C0.251107 43.6284 0.41661 43.5551 0.502215 43.4762C0.587819 43.3973 0.644889 43.2846 0.667717 43.1437C0.696252 42.9971 0.707666 42.7773 0.707666 42.4841V37.2926C0.707666 37.0164 0.696252 36.8135 0.679131 36.6895C0.656303 36.5655 0.627768 36.464 0.576405 36.3964C0.53075 36.3287 0.467973 36.2723 0.393782 36.2273C0.319591 36.1878 0.182624 36.1371 0 36.0863V35.7932H2.56244V36.0863C2.38552 36.1314 2.25426 36.1765 2.17436 36.216C2.09446 36.2611 2.03169 36.3174 1.98603 36.3794C1.94037 36.4471 1.90613 36.5429 1.8833 36.6782C1.86048 36.8078 1.84906 37.0164 1.84906 37.2926V42.4841H1.85477Z" fill="white"/>
<path d="M9.81039 43.9841H7.41346V43.6909C7.57325 43.6402 7.68739 43.6008 7.75587 43.5669C7.82436 43.5331 7.88143 43.4824 7.92708 43.4147C7.97274 43.3527 8.01269 43.2513 8.03552 43.116C8.06405 42.9807 8.07547 42.7778 8.07547 42.5072V40.9345C8.07547 40.6527 8.06976 40.399 8.05264 40.1736C8.03552 39.9481 8.00698 39.7564 7.97274 39.6099C7.93279 39.4633 7.88714 39.3506 7.83577 39.266C7.7787 39.1815 7.71593 39.1138 7.64173 39.0575C7.56754 39.0011 7.48194 38.956 7.38492 38.9222C7.2879 38.8883 7.16235 38.8714 7.00255 38.8714C6.84276 38.8714 6.69438 38.9053 6.5517 38.9673C6.40903 39.0293 6.25494 39.1364 6.08373 39.2886C5.91252 39.4408 5.79267 39.593 5.71277 39.7395C5.63858 39.8861 5.59863 40.0552 5.59863 40.2525V42.4903C5.59863 42.8341 5.61575 43.0765 5.65 43.2062C5.68424 43.3415 5.74702 43.4429 5.83262 43.5106C5.92393 43.5782 6.07231 43.6402 6.27777 43.6909V43.9841H3.89225V43.6909C4.05204 43.6402 4.16047 43.6008 4.22896 43.5669C4.29744 43.5331 4.35451 43.4824 4.40017 43.4147C4.44582 43.3527 4.48577 43.2513 4.5086 43.1216C4.53713 42.992 4.54855 42.7834 4.54855 42.5016V39.8861C4.54855 39.6324 4.54284 39.4238 4.53713 39.266C4.53143 39.1082 4.50289 38.9842 4.45153 38.8884C4.40017 38.7925 4.33168 38.7249 4.22896 38.6798C4.13194 38.6347 3.98926 38.5952 3.80664 38.5614V38.2457L5.22768 38.1894H5.59863L5.53015 39.1702L5.61576 39.1927C5.91823 38.894 6.15792 38.6798 6.34054 38.5501C6.52317 38.4205 6.7115 38.3247 6.89983 38.2514C7.08816 38.1837 7.2879 38.1443 7.49906 38.1443C7.71593 38.1443 7.91567 38.1668 8.08688 38.2176C8.25809 38.2683 8.41218 38.3472 8.54344 38.4487C8.6747 38.5501 8.78313 38.6798 8.86874 38.8376C8.95434 38.9898 9.01712 39.1758 9.06277 39.3957C9.10272 39.6099 9.12555 39.8861 9.12555 40.2186V42.4847C9.12555 42.7609 9.13126 42.9638 9.14838 43.0878C9.1655 43.2118 9.19403 43.3076 9.23398 43.3753C9.27393 43.4429 9.331 43.4993 9.4109 43.5444C9.48509 43.5895 9.62206 43.6402 9.81039 43.6909V43.9841Z" fill="white"/>
<path d="M13.9592 38.8486H12.5039V42.4787C12.5039 42.7493 12.5153 42.9465 12.5438 43.0875C12.5724 43.2228 12.6066 43.3242 12.658 43.3975C12.7093 43.4651 12.7778 43.5215 12.8577 43.5666C12.9433 43.6061 13.0746 43.6512 13.2572 43.6906V43.9837H10.769V43.6906C10.9459 43.6399 11.0771 43.5948 11.1513 43.5553C11.2255 43.5102 11.2883 43.4539 11.3282 43.3862C11.3682 43.3186 11.4024 43.2228 11.4253 43.0931C11.4481 42.9635 11.4538 42.7605 11.4538 42.4843V38.8542H10.729V38.5498C10.8831 38.5273 10.9858 38.5047 11.0372 38.4934C11.0885 38.4822 11.1342 38.4596 11.1856 38.4314C11.2312 38.4032 11.2712 38.3638 11.3054 38.3131C11.3397 38.2623 11.3682 38.1834 11.3967 38.0819C11.4253 37.9805 11.4424 37.8396 11.4595 37.6535C11.4937 37.2195 11.5736 36.8644 11.6992 36.5882C11.8247 36.3176 12.0017 36.0865 12.2414 35.8892C12.481 35.6976 12.7322 35.5623 13.0004 35.4834C13.2686 35.4044 13.5882 35.365 13.9535 35.365C14.273 35.365 14.547 35.3875 14.7695 35.4326V36.5205H14.1703C14.0961 36.2838 14.0048 36.1147 13.9021 36.0189C13.7994 35.923 13.6567 35.8723 13.4684 35.8723C13.3371 35.8723 13.223 35.8892 13.1316 35.9287C13.0403 35.9625 12.9547 36.0189 12.8805 36.0978C12.8063 36.1767 12.7379 36.2782 12.6808 36.4022C12.6237 36.5318 12.5838 36.6896 12.5609 36.8813C12.5324 37.073 12.521 37.321 12.521 37.6254V38.2567H13.9763V38.8486H13.9592Z" fill="white"/>
<path d="M17.0981 44.0799C16.2535 44.0799 15.6143 43.8375 15.1692 43.3471C14.724 42.8567 14.5015 42.1295 14.5015 41.1713C14.5015 40.5118 14.6156 39.9537 14.8496 39.4971C15.0836 39.0405 15.4032 38.7023 15.8084 38.4769C16.2136 38.257 16.6758 38.1443 17.1952 38.1443C18.0626 38.1443 18.7189 38.3923 19.1641 38.894C19.6092 39.39 19.8318 40.1059 19.8318 41.0416C19.8318 41.7068 19.7176 42.2648 19.4951 42.7214C19.2725 43.178 18.9586 43.5218 18.5477 43.7473C18.1368 43.9671 17.6574 44.0799 17.0981 44.0799ZM15.6486 41.0416C15.6486 41.8646 15.7798 42.5016 16.0481 42.9412C16.3106 43.3809 16.6929 43.6064 17.1895 43.6064C17.4634 43.6064 17.6917 43.5387 17.88 43.4091C18.0683 43.2795 18.2281 43.1047 18.3423 42.8849C18.4621 42.665 18.5477 42.4114 18.5991 42.1183C18.6504 41.8308 18.679 41.5264 18.679 41.2107C18.679 40.6245 18.6105 40.1341 18.4792 39.7451C18.348 39.3562 18.1711 39.0744 17.9428 38.8884C17.7145 38.708 17.4577 38.6178 17.1666 38.6178C16.6758 38.6178 16.2992 38.8263 16.0366 39.2491C15.7798 39.6662 15.6486 40.2637 15.6486 41.0416Z" fill="white"/>
<path d="M27.9758 39.5705C27.9758 41.0191 27.5763 42.1296 26.783 42.8962C25.9897 43.6628 24.8426 44.0461 23.3474 44.0461H20.8877V35.2639H23.6099C24.991 35.2639 26.0639 35.6416 26.8287 36.3969C27.5934 37.1523 27.9758 38.212 27.9758 39.5705ZM26.88 39.6043C26.88 38.46 26.589 37.5976 26.0069 37.017C25.4247 36.4364 24.563 36.1489 23.4159 36.1489H21.915V43.1611H23.1705C24.4032 43.1611 25.3277 42.8624 25.9498 42.2649C26.5719 41.6617 26.88 40.7767 26.88 39.6043Z" fill="white"/>
<path d="M32.6156 44.1646C31.6283 44.1646 30.8522 43.8658 30.2872 43.274C29.7165 42.6821 29.4312 41.8591 29.4312 40.805C29.4312 39.7453 29.6937 38.8998 30.2244 38.2797C30.7552 37.654 31.4628 37.344 32.3531 37.344C33.1863 37.344 33.8484 37.6146 34.3335 38.1557C34.8185 38.6968 35.0639 39.4127 35.0639 40.3033V40.9347H30.4755C30.4984 41.7069 30.6924 42.2931 31.0691 42.6934C31.4457 43.0936 31.9708 43.2965 32.6499 43.2965C33.369 43.2965 34.0766 43.1499 34.7786 42.8512V43.7418C34.4248 43.894 34.0823 44.0011 33.7685 44.0687C33.4489 44.1308 33.0665 44.1646 32.6156 44.1646ZM32.3417 38.1782C31.8053 38.1782 31.3829 38.353 31.0633 38.6968C30.7438 39.0407 30.5554 39.5198 30.5041 40.1286H33.9853C33.9853 39.5029 33.8427 39.0181 33.5573 38.6856C33.2777 38.3417 32.8725 38.1782 32.3417 38.1782Z" fill="white"/>
<path d="M38.2426 44.0406L35.7144 37.4624H36.7987L38.2311 41.3631C38.5564 42.2763 38.7448 42.8682 38.8018 43.1387H38.8532C38.8989 42.9245 39.0358 42.4849 39.2755 41.8197C39.5152 41.1546 40.046 39.7003 40.8735 37.4568H41.9578L39.4296 44.035H38.2426V44.0406Z" fill="white"/>
<path d="M45.8388 44.1646C44.8515 44.1646 44.0754 43.8658 43.5104 43.274C42.9397 42.6821 42.6543 41.8591 42.6543 40.805C42.6543 39.7453 42.9168 38.8998 43.4476 38.2797C43.9783 37.654 44.686 37.344 45.5763 37.344C46.4095 37.344 47.0716 37.6146 47.5567 38.1557C48.0418 38.6968 48.2872 39.4127 48.2872 40.3033V40.9347H43.6987C43.7215 41.7069 43.9156 42.2931 44.2922 42.6934C44.6689 43.0936 45.1939 43.2965 45.8731 43.2965C46.5922 43.2965 47.2999 43.1499 48.0018 42.8512V43.7418C47.648 43.894 47.3056 44.0011 46.9917 44.0687C46.6721 44.1308 46.284 44.1646 45.8388 44.1646ZM45.5649 38.1782C45.0284 38.1782 44.6061 38.353 44.2865 38.6968C43.9669 39.0407 43.7786 39.5198 43.7272 40.1286H47.2085C47.2085 39.5029 47.0659 39.0181 46.7805 38.6856C46.4952 38.3417 46.09 38.1782 45.5649 38.1782Z" fill="white"/>
<path d="M51.015 44.0404H50.0049V34.7002H51.015V44.0404Z" fill="white"/>
<path d="M58.9021 40.7482C58.9021 41.8192 58.6281 42.6591 58.0803 43.2622C57.5324 43.8654 56.7791 44.1641 55.8146 44.1641C55.2211 44.1641 54.6903 44.0288 54.228 43.747C53.7658 43.4708 53.4119 43.0762 53.1608 42.5576C52.9097 42.039 52.7842 41.4359 52.7842 40.7425C52.7842 39.6715 53.0581 38.8317 53.6003 38.2341C54.1424 37.6366 54.8958 37.3379 55.8602 37.3379C56.7905 37.3379 57.5324 37.6423 58.0803 38.2567C58.6281 38.8711 58.9021 39.6997 58.9021 40.7482ZM53.8286 40.7482C53.8286 41.5881 53.9998 42.2307 54.3365 42.6703C54.6789 43.11 55.1754 43.3299 55.8374 43.3299C56.4994 43.3299 57.0016 43.11 57.3441 42.6703C57.6865 42.2307 57.8577 41.5881 57.8577 40.7482C57.8577 39.9139 57.6865 39.277 57.3441 38.8429C57.0016 38.4089 56.4937 38.1891 55.826 38.1891C55.164 38.1891 54.6675 38.4033 54.3308 38.8317C53.9941 39.2601 53.8286 39.897 53.8286 40.7482Z" fill="white"/>
<path d="M63.7698 44.1646C63.3361 44.1646 62.9423 44.0857 62.5827 43.9278C62.2232 43.77 61.9207 43.5276 61.681 43.2007H61.6068C61.6582 43.584 61.681 43.9504 61.681 44.2942V46.9999H60.6709V37.4624H61.4927L61.6297 38.3643H61.681C61.9379 38.0035 62.2403 37.7442 62.5884 37.5864C62.9309 37.4285 63.3304 37.344 63.7755 37.344C64.6601 37.344 65.3392 37.6427 65.8186 38.2403C66.298 38.8378 66.5377 39.672 66.5377 40.7486C66.5377 41.8309 66.2923 42.6708 65.8072 43.2683C65.3164 43.8658 64.6373 44.1646 63.7698 44.1646ZM63.6214 38.1895C62.9423 38.1895 62.4458 38.3755 62.1433 38.7476C61.8408 39.1196 61.681 39.7115 61.6753 40.5232V40.743C61.6753 41.6675 61.8294 42.327 62.1433 42.7272C62.4572 43.1274 62.9537 43.3247 63.6442 43.3247C64.2206 43.3247 64.6715 43.0936 64.9968 42.6314C65.3221 42.1691 65.4876 41.5378 65.4876 40.7261C65.4876 39.9031 65.3221 39.2774 64.9968 38.8378C64.6772 38.4094 64.2149 38.1895 63.6214 38.1895Z" fill="white"/>
<path d="M71.1093 44.1646C70.1277 44.1646 69.3458 43.8658 68.7809 43.274C68.2102 42.6821 67.9248 41.8591 67.9248 40.805C67.9248 39.7453 68.1873 38.8998 68.7181 38.2797C69.2488 37.654 69.9565 37.344 70.8468 37.344C71.68 37.344 72.342 37.6146 72.8271 38.1557C73.3122 38.6968 73.5576 39.4127 73.5576 40.3033V40.9347H68.9692C68.992 41.7069 69.1861 42.2931 69.5627 42.6934C69.9394 43.0936 70.4644 43.2965 71.1435 43.2965C71.8626 43.2965 72.5703 43.1499 73.2723 42.8512V43.7418C72.9184 43.894 72.576 44.0011 72.2621 44.0687C71.9425 44.1308 71.5602 44.1646 71.1093 44.1646ZM70.8411 38.1782C70.3046 38.1782 69.8823 38.353 69.5627 38.6968C69.2431 39.0407 69.0548 39.5198 68.9977 40.1286H72.479C72.479 39.5029 72.3363 39.0181 72.051 38.6856C71.7713 38.3417 71.3661 38.1782 70.8411 38.1782Z" fill="white"/>
<path d="M78.3172 37.344C78.614 37.344 78.8765 37.3665 79.1105 37.4173L78.9735 38.3417C78.6996 38.2797 78.4542 38.2515 78.243 38.2515C77.7066 38.2515 77.2443 38.4657 76.8619 38.8998C76.4796 39.3338 76.2855 39.8693 76.2855 40.5175V44.0462H75.2754V37.4624H76.1086L76.2227 38.6799H76.2741C76.5195 38.2515 76.8163 37.919 77.1701 37.6878C77.5182 37.4567 77.9006 37.344 78.3172 37.344Z" fill="white"/>
<path d="M84.6577 42.2479C84.6577 42.8623 84.4294 43.3301 83.9671 43.6627C83.5049 43.9953 82.8543 44.1588 82.021 44.1588C81.1365 44.1588 80.4516 44.0235 79.9551 43.7416V42.8172C80.2747 42.975 80.6171 43.1047 80.9881 43.1949C81.3533 43.285 81.7072 43.3301 82.0496 43.3301C82.5746 43.3301 82.9798 43.2456 83.2652 43.0821C83.5505 42.9187 83.6932 42.665 83.6932 42.3211C83.6932 42.0675 83.5791 41.8477 83.3565 41.6616C83.1339 41.4813 82.6945 41.2671 82.0382 41.0134C81.4161 40.7879 80.9767 40.585 80.7141 40.4159C80.4516 40.2468 80.2576 40.0551 80.132 39.8353C80.0065 39.6211 79.938 39.3618 79.938 39.0631C79.938 38.5276 80.1606 38.1048 80.6 37.7948C81.0394 37.4847 81.6501 37.3269 82.4148 37.3269C83.1339 37.3269 83.8302 37.4735 84.515 37.7609L84.1555 38.5726C83.4877 38.3021 82.8828 38.1668 82.3406 38.1668C81.8613 38.1668 81.5017 38.2401 81.2563 38.3866C81.0109 38.5332 80.8911 38.7418 80.8911 39.001C80.8911 39.1758 80.9367 39.328 81.028 39.452C81.1193 39.576 81.2677 39.6944 81.4675 39.8071C81.6672 39.9199 82.061 40.0833 82.6317 40.2919C83.4193 40.5737 83.9557 40.8612 84.2354 41.1487C84.5207 41.4474 84.6577 41.8138 84.6577 42.2479Z" fill="white"/>
<path d="M95.3182 37.823C95.3182 38.7137 95.01 39.3957 94.3994 39.8749C93.783 40.354 92.9099 40.5907 91.7628 40.5907H90.7185V44.0405H89.6855V35.2639H91.9911C94.2053 35.2639 95.3182 36.1151 95.3182 37.823ZM90.7185 39.7114H91.6487C92.5618 39.7114 93.2295 39.5648 93.6347 39.2717C94.0455 38.9786 94.251 38.5107 94.251 37.8681C94.251 37.2875 94.057 36.8535 93.6746 36.5717C93.2923 36.2898 92.6873 36.1433 91.877 36.1433H90.7242V39.7114H90.7185Z" fill="white"/>
<path d="M98.4853 44.0406L95.957 37.4624H97.0414L98.4739 41.3631C98.7992 42.2763 98.9875 42.8682 99.0446 43.1387H99.096C99.1416 42.9245 99.2786 42.4849 99.5183 41.8197C99.758 41.1546 100.289 39.7003 101.116 37.4568H102.201L99.6724 44.035H98.4853V44.0406Z" fill="white"/>
<path d="M105.414 43.3416C105.591 43.3416 105.762 43.3304 105.933 43.3022C106.099 43.274 106.23 43.2514 106.327 43.2233V43.9842C106.219 44.035 106.059 44.0801 105.842 44.1139C105.631 44.1477 105.437 44.1646 105.266 44.1646C103.976 44.1646 103.331 43.4938 103.331 42.1523V38.2346H102.378V37.7555L103.331 37.3384L103.759 35.9348H104.341V37.4624H106.276V38.2346H104.341V42.1072C104.341 42.5017 104.438 42.8061 104.626 43.0203C104.821 43.2345 105.083 43.3416 105.414 43.3416Z" fill="white"/>
<path d="M107.508 43.4091C107.508 43.1386 107.571 42.9356 107.691 42.8004C107.816 42.6594 107.993 42.5918 108.222 42.5918C108.456 42.5918 108.638 42.6594 108.77 42.8004C108.901 42.9356 108.969 43.1442 108.969 43.4091C108.969 43.6684 108.901 43.8714 108.77 44.0123C108.638 44.1532 108.456 44.2208 108.222 44.2208C108.016 44.2208 107.845 44.1588 107.708 44.0292C107.577 43.8995 107.508 43.6966 107.508 43.4091Z" fill="white"/>
<path d="M114.351 44.0405V35.2639H115.384V43.116H119.305V44.0405H114.351Z" fill="white"/>
<path d="M122.814 43.3416C122.991 43.3416 123.163 43.3304 123.334 43.3022C123.499 43.274 123.631 43.2514 123.728 43.2233V43.9842C123.619 44.035 123.459 44.0801 123.242 44.1139C123.031 44.1477 122.837 44.1646 122.666 44.1646C121.376 44.1646 120.731 43.4938 120.731 42.1523V38.2346H119.778V37.7555L120.731 37.3384L121.159 35.9348H121.742V37.4624H123.676V38.2346H121.742V42.1072C121.742 42.5017 121.839 42.8061 122.027 43.0203C122.221 43.2345 122.478 43.3416 122.814 43.3416Z" fill="white"/>
<path d="M129.589 43.161H129.532C129.064 43.8317 128.368 44.1643 127.443 44.1643C126.57 44.1643 125.896 43.8712 125.411 43.2793C124.926 42.6931 124.687 41.8532 124.687 40.7709C124.687 39.6887 124.932 38.8431 125.417 38.2456C125.902 37.6425 126.581 37.3437 127.449 37.3437C128.35 37.3437 129.047 37.6707 129.526 38.3189H129.606L129.566 37.8454L129.543 37.3832V34.7057H130.553V44.0459H129.72L129.589 43.161ZM127.569 43.3301C128.259 43.3301 128.756 43.144 129.069 42.772C129.378 42.4 129.532 41.8025 129.532 40.9795V40.7709C129.532 39.8409 129.372 39.1701 129.058 38.7755C128.744 38.3753 128.242 38.178 127.551 38.178C126.958 38.178 126.507 38.4035 126.193 38.86C125.879 39.3166 125.719 39.9536 125.719 40.7822C125.719 41.6221 125.874 42.2591 126.187 42.6875C126.507 43.1159 126.969 43.3301 127.569 43.3301Z" fill="white"/>
<path d="M132.533 43.4091C132.533 43.1386 132.596 42.9356 132.716 42.8004C132.841 42.6594 133.018 42.5918 133.247 42.5918C133.481 42.5918 133.663 42.6594 133.794 42.8004C133.926 42.9356 133.994 43.1442 133.994 43.4091C133.994 43.6684 133.926 43.8714 133.794 44.0123C133.663 44.1532 133.481 44.2208 133.247 44.2208C133.041 44.2208 132.87 44.1588 132.733 44.0292C132.602 43.8995 132.533 43.6966 132.533 43.4091Z" fill="white"/>
<path d="M107.742 33.077C107.742 32.953 107.742 32.8684 107.742 32.7895C107.742 22.3219 107.742 11.8599 107.736 1.39227C107.736 0.873678 107.902 0.462188 108.353 0.185983C108.883 -0.135317 109.563 -0.0394906 109.996 0.456552C110.453 0.980778 110.892 1.52191 111.28 2.09124C111.851 2.91985 112.365 3.78229 112.907 4.63345C113.831 6.07649 114.762 7.52515 115.686 8.96819C116.97 10.9749 118.243 12.9816 119.533 14.9883C120.782 16.933 122.038 18.8665 123.294 20.8112C124.087 22.04 124.874 23.2801 125.662 24.5146C126.216 25.3827 126.769 26.2451 127.049 27.2541C127.454 28.7141 127.18 30.0838 126.381 31.3239C125.651 32.4626 124.526 33.0657 123.162 33.077C118.106 33.0995 113.05 33.0882 107.993 33.0882C107.919 33.077 107.845 33.077 107.742 33.077ZM121.581 25.3038C121.581 22.0908 118.911 19.4584 115.658 19.4584C112.405 19.4584 109.739 22.0964 109.739 25.3094C109.739 28.5224 112.41 31.1548 115.663 31.1548C118.916 31.1548 121.587 28.5168 121.581 25.3038Z" fill="white"/>
<path d="M105.579 33.0602C105.459 33.0602 105.368 33.0602 105.277 33.0602C101.755 33.0602 98.2399 33.111 94.7186 33.0433C92.0535 32.9926 90.8379 30.2982 91.791 28.5226C92.2304 27.6996 92.7383 26.9161 93.2348 26.1269C94.1765 24.6275 95.1295 23.1337 96.0769 21.64C96.7161 20.631 97.361 19.622 98.0002 18.613C98.9532 17.1136 99.9063 15.6085 100.859 14.1091C101.63 12.8972 102.406 11.6853 103.182 10.479C103.422 10.107 103.667 9.74056 103.935 9.39107C104.204 9.04723 104.569 8.9514 104.946 9.07541C105.288 9.18815 105.562 9.57709 105.579 9.96603C105.579 10.0111 105.579 10.0562 105.579 10.1013C105.579 17.6547 105.579 25.2081 105.579 32.7671C105.579 32.8517 105.579 32.9362 105.579 33.0602Z" fill="white"/>
<path d="M103.61 8.08332C102.412 8.07768 101.459 7.12505 101.464 5.93004C101.464 4.74067 102.429 3.79932 103.639 3.79932C104.854 3.79932 105.802 4.75194 105.802 5.9695C105.796 7.15324 104.826 8.08895 103.61 8.08332Z" fill="white"/>
</g>
<defs>
<clipPath id="clip0">
<rect width="134" height="47" fill="white"/>
</clipPath>
</defs>
</svg>
